<?xml version="1.0" standalone="no"?>
<!DOCTYPE svg PUBLIC "-//W3C//DTD SVG 20010904//EN"
 "http://www.w3.org/TR/2001/REC-SVG-20010904/DTD/svg10.dtd">
<svg version="1.0" xmlns="http://www.w3.org/2000/svg"
 width="240.000000pt" height="240.000000pt" viewBox="0 0 240.000000 240.000000"
 preserveAspectRatio="xMidYMid meet">
<metadata>
Created by potrace 1.11, written by Peter Selinger 2001-2013
</metadata>
<g transform="translate(0.000000,240.000000) scale(0.100000,-0.100000)"
fill="#000000" stroke="none">
<path d="M1208 2305 c-5 -9 -60 -178 -231 -705 l-43 -135 -454 -5 -453 -5 309
-225 c170 -124 314 -228 319 -233 6 -4 31 -23 58 -43 26 -19 46 -38 43 -42 -2
-4 -38 -115 -81 -247 -73 -228 -182 -566 -190 -592 -4 -10 104 63 215 147 14
11 55 41 92 67 36 26 146 106 242 176 l176 129 133 -97 c72 -53 141 -103 152
-111 11 -8 65 -47 120 -87 55 -40 150 -110 212 -155 62 -45 110 -76 108 -69
-2 6 -47 147 -100 312 -53 165 -114 352 -134 415 -21 63 -37 118 -35 121 2 3
68 53 146 110 79 57 148 108 155 114 6 5 105 78 219 160 l207 150 -453 5 -454
5 -43 135 c-120 370 -215 668 -222 690 -4 13 -10 20 -13 15z"/>
</g>
</svg>
